<?xml version="1.0" encoding="UTF-8"?>
<svg width="14px" height="13px" viewBox="0 0 14 13" version="1.1" xmlns="http://www.w3.org/2000/svg" xmlns:xlink="http://www.w3.org/1999/xlink">
    <g id="Sprites-/-Overlays-/-Assets" stroke="none" stroke-width="1" fill="none" fill-rule="evenodd">
        <g id="SpriteSheet---Misc" transform="translate(-378.000000, -218.000000)" fill="#000000">
            <path d="M385,217.5 C386.317929,217.5 387.386321,218.568393 387.386321,219.886321 L387.386,223.207 L389.795287,223.207107 C390.175834,223.207107 390.543192,223.337264 390.83763,223.573268 L390.959179,223.680822 C391.618028,224.323621 391.631038,225.378816 390.988239,226.037665 L390.988239,226.037665 L386.192952,230.95268 C386.183385,230.962486 386.173697,230.972173 386.163892,230.98174 C385.505043,231.62454 384.449848,231.611529 383.807048,230.95268 L383.807048,230.95268 L379.011761,226.037665 C378.708048,225.726368 378.538046,225.308685 378.538046,224.873773 C378.538046,223.953299 379.284239,223.207107 380.204713,223.207107 L380.204713,223.207107 L382.613,223.207 L382.613679,219.886321 C382.613679,218.568393 383.682071,217.5 385,217.5 Z" id="ic.Navigate.Arrow" transform="translate(385.000000, 224.500000) rotate(-90.000000) translate(-385.000000, -224.500000) "></path>
        </g>
    </g>
</svg>