<?xml version="1.0" encoding="UTF-8"?>
<svg width="25px" height="25px" viewBox="0 0 25 25" version="1.1" xmlns="http://www.w3.org/2000/svg" xmlns:xlink="http://www.w3.org/1999/xlink">
    <g id="Sprites-/-Overlays-/-Assets" stroke="none" stroke-width="1" fill="none" fill-rule="evenodd">
        <g id="SpriteSheet---Misc" transform="translate(-298.000000, -212.000000)" fill="#FFFFFF">
            <path d="M310.5,212 C317.403559,212 323,217.596441 323,224.5 C323,231.403559 317.403559,237 310.5,237 C303.596441,237 298,231.403559 298,224.5 C298,217.596441 303.596441,212 310.5,212 Z M310.5,217 C309.119288,217 308,218.119288 308,219.5 L308,219.5 L307.999356,222.833 L305.357023,222.833333 L305.213216,222.839451 C304.360068,222.912363 303.690356,223.627971 303.690356,224.5 C303.690356,224.942027 303.865951,225.365951 304.178511,225.678511 L304.178511,225.678511 L309.321489,230.821489 L309.440382,230.929592 C310.095113,231.47011 311.065924,231.434076 311.678511,230.821489 L311.678511,230.821489 L316.821489,225.678511 L316.929592,225.559618 C317.47011,224.904887 317.434076,223.934076 316.821489,223.321489 L316.821489,223.321489 L316.69924,223.210774 C316.402664,222.967773 316.029751,222.833333 315.642977,222.833333 L315.642977,222.833333 L312.999356,222.833 L313,219.5 C313,218.119288 311.880712,217 310.5,217 Z" id="ic.Navigate" transform="translate(310.500000, 224.500000) rotate(-90.000000) translate(-310.500000, -224.500000) "></path>
        </g>
    </g>
</svg>